<?xml version="1.0"?>
<svg xmlns="http://www.w3.org/2000/svg" id="Outline" viewBox="0 0 512 512" width="512" height="512"><path d="M493.657,162.343l-80-80A8,8,0,0,0,408,80H328V40c0-13.682-17.2-24-40-24-13.379,0-24.822,3.555-32,9.254C248.822,19.555,237.379,16,224,16c-22.8,0-40,10.318-40,24V80H104a8,8,0,0,0-5.657,2.343l-80,80A8,8,0,0,0,16,168V488a8,8,0,0,0,8,8H488a8,8,0,0,0,8-8V168A8,8,0,0,0,493.657,162.343ZM288,32c16.281,0,24,6.417,24,8v60.538a65.706,65.706,0,0,0-48,0V40C264,38.417,271.719,32,288,32Zm-88,8c0-1.583,7.719-8,24-8s24,6.417,24,8v60.538a65.733,65.733,0,0,0-48,0ZM107.313,96H184v24a8,8,0,0,0,16,0c0-1.583,7.719-8,24-8s24,6.417,24,8a8,8,0,0,0,16,0c0-1.583,7.719-8,24-8s24,6.417,24,8a8,8,0,0,0,16,0V96h76.687l64,64H43.313ZM392,480H120V464H392ZM192,448V432H320v16Zm16-240V416H192V208Zm16,208V400h64v16Zm24-32H224V304a32.056,32.056,0,0,1,24-30.987Zm40,0H264V273.013A32.056,32.056,0,0,1,288,304Zm0-115.739a47.889,47.889,0,0,0-64,0V208h64ZM320,416H304V208h16ZM160,192V176H352v16ZM32,176H144v24a8,8,0,0,0,8,8h24V448H112a8,8,0,0,0-8,8v24H32ZM408,480V456a8,8,0,0,0-8-8H336V208h24a8,8,0,0,0,8-8V176H480V480Z"/><path d="M88,224H56a8,8,0,0,0-8,8v80a8,8,0,0,0,8,8H88a8,8,0,0,0,8-8V232A8,8,0,0,0,88,224Zm-8,80H64V240H80Z"/><path d="M120,320h32a8,8,0,0,0,8-8V232a8,8,0,0,0-8-8H120a8,8,0,0,0-8,8v80A8,8,0,0,0,120,320Zm8-80h16v64H128Z"/><path d="M120,432h32a8,8,0,0,0,8-8V344a8,8,0,0,0-8-8H120a8,8,0,0,0-8,8v80A8,8,0,0,0,120,432Zm8-80h16v64H128Z"/><path d="M88,336H56a8,8,0,0,0-8,8v80a8,8,0,0,0,8,8H88a8,8,0,0,0,8-8V344A8,8,0,0,0,88,336Zm-8,80H64V352H80Z"/><path d="M392,224H360a8,8,0,0,0-8,8v80a8,8,0,0,0,8,8h32a8,8,0,0,0,8-8V232A8,8,0,0,0,392,224Zm-8,80H368V240h16Z"/><path d="M456,224H424a8,8,0,0,0-8,8v80a8,8,0,0,0,8,8h32a8,8,0,0,0,8-8V232A8,8,0,0,0,456,224Zm-8,80H432V240h16Z"/><path d="M456,336H424a8,8,0,0,0-8,8v80a8,8,0,0,0,8,8h32a8,8,0,0,0,8-8V344A8,8,0,0,0,456,336Zm-8,80H432V352h16Z"/><path d="M392,336H360a8,8,0,0,0-8,8v80a8,8,0,0,0,8,8h32a8,8,0,0,0,8-8V344A8,8,0,0,0,392,336Zm-8,80H368V352h16Z"/></svg>
